 <svg  version="1.0" xmlns="http://www.w3.org/2000/svg"  width="272.000000pt" height="272.000000pt" viewBox="0 0 272.000000 272.000000"  preserveAspectRatio="xMidYMid meet">  <g transform="translate(0.000000,272.000000) scale(0.100000,-0.100000)" fill="#901014" stroke="none"> <path d="M1325 2321 c-12 -5 -38 -46 -64 -98 l-44 -90 -94 -13 c-75 -10 -97 -17 -108 -34 -25 -35 -18 -53 54 -131 l68 -75 -14 -88 c-16 -102 -13 -124 22 -140 23 -11 36 -7 115 35 l88 48 89 -44 c132 -64 160 -47 137 83 -7 39 -13 80 -13 91 -1 11 28 53 64 93 100 112 90 143 -54 166 -52 9 -95 17 -96 18 -2 2 -21 40 -44 85 -22 45 -50 87 -60 93 -22 11 -20 11 -46 1z m55 -181 c37 -73 57 -87 138 -96 l63 -7 -57 -59 -56 -59 7 -76 c4 -45 3 -74 -2 -72 -5 2 -35 18 -67 34 l-57 30 -69 -38 c-78 -42 -76 -43 -61 48 10 60 4 74 -57 137 -51 53 -52 51 46 62 54 6 71 20 107 96 16 33 30 60 32 60 1 0 16 -27 33 -60z"/> <path d="M632 2075 c-12 -14 -28 -46 -37 -70 -18 -46 -22 -48 -108 -60 -92 -14 -101 -55 -26 -131 l51 -51 -12 -78 c-10 -69 -10 -79 6 -96 23 -26 38 -24 109 13 l61 31 59 -31 c70 -38 90 -40 111 -7 14 22 14 32 2 94 l-14 70 48 48 c27 26 51 58 55 71 8 35 -21 59 -80 67 -78 11 -83 15 -119 85 -27 52 -38 66 -59 68 -19 2 -33 -4 -47 -23z m96 -192 c9 -7 31 -13 49 -13 41 0 41 -8 2 -46 -29 -27 -31 -33 -26 -81 5 -48 -3 -67 -17 -44 -3 5 -19 14 -35 19 -24 8 -37 7 -67 -9 -21 -10 -40 -19 -42 -19 -2 0 -1 22 3 49 6 45 4 51 -24 84 -17 19 -31 37 -31 41 0 3 13 6 29 6 46 0 60 9 82 52 l21 41 20 -34 c11 -19 27 -40 36 -46z"/> <path d="M1989 2083 c-8 -10 -25 -41 -38 -70 -25 -54 -28 -56 -114 -68 -92 -14 -100 -55 -26 -134 44 -47 50 -58 45 -85 -19 -105 -19 -116 -1 -136 24 -26 34 -25 108 11 l64 32 58 -32 c68 -36 85 -38 110 -11 16 18 17 26 5 96 l-13 75 51 52 c80 81 67 116 -48 136 -36 6 -66 14 -68 18 -1 5 -17 35 -35 68 -35 66 -69 83 -98 48z m90 -203 c11 -5 33 -10 50 -10 17 0 31 -3 31 -6 0 -4 -14 -22 -31 -41 -28 -33 -30 -39 -24 -84 4 -31 3 -49 -3 -49 -6 0 -13 4 -16 9 -3 5 -19 14 -35 19 -24 8 -37 7 -67 -9 -21 -10 -40 -19 -42 -19 -2 0 -1 22 3 49 6 47 5 51 -30 90 l-37 41 28 0 c54 0 75 12 96 53 l20 41 19 -37 c11 -20 28 -41 38 -47z"/> <path d="M1271 1574 c-58 -49 -61 -65 -61 -361 l-1 -268 -31 38 c-38 47 -76 67 -125 67 -81 0 -140 -71 -130 -157 4 -34 27 -77 108 -201 57 -86 128 -183 157 -214 34 -35 58 -72 66 -99 15 -50 38 -69 64 -53 42 27 21 102 -52 182 -29 31 -101 129 -159 216 -123 183 -131 212 -68 246 23 12 29 8 117 -85 76 -80 95 -96 113 -90 11 3 21 14 21 23 0 9 1 164 2 343 3 358 3 359 63 359 64 0 65 -6 65 -304 0 -273 4 -306 38 -306 36 0 42 21 42 138 0 122 8 152 43 152 47 0 52 -12 57 -146 4 -107 8 -129 23 -138 12 -8 22 -8 35 0 14 9 17 28 20 95 3 106 7 126 33 139 16 9 26 8 45 -5 23 -15 24 -20 24 -129 0 -122 7 -141 52 -134 21 3 23 9 28 84 6 90 19 117 59 112 47 -5 52 -34 48 -243 -5 -204 -13 -247 -60 -323 -31 -47 -60 -147 -51 -174 7 -23 43 -33 59 -17 7 8 18 37 24 64 7 28 23 67 36 87 13 20 34 65 47 100 20 57 22 81 23 273 0 184 -2 214 -18 243 -26 48 -72 73 -128 70 -41 -3 -49 0 -73 29 -35 42 -93 61 -135 44 -26 -11 -32 -10 -51 9 -26 26 -62 40 -103 40 l-33 0 -2 110 c-3 162 -29 201 -136 208 -56 4 -65 2 -95 -24z"/> </g> </svg> 