 <svg  version="1.0" xmlns="http://www.w3.org/2000/svg"  width="816.000000pt" height="816.000000pt" viewBox="0 0 816.000000 816.000000"  preserveAspectRatio="xMidYMid meet">  <g transform="translate(0.000000,816.000000) scale(0.100000,-0.100000)" fill="#901014" stroke="none"> <path d="M4015 6953 c-38 -10 -91 -62 -104 -100 -9 -28 -11 -152 -9 -489 l3 -450 24 -35 c38 -56 65 -71 131 -71 72 0 114 22 141 74 18 35 19 65 19 499 0 511 0 509 -65 549 -34 21 -105 33 -140 23z"/> <path d="M2372 6450 c-46 -25 -75 -82 -75 -146 0 -62 20 -91 182 -264 59 -63 134 -144 166 -180 242 -271 255 -283 303 -292 102 -18 185 31 198 117 9 64 -10 108 -77 178 -66 68 -73 76 -173 192 -58 67 -118 132 -183 200 -7 7 -44 50 -84 96 -39 45 -86 91 -105 101 -43 23 -109 22 -152 -2z"/> <path d="M5605 6452 c-27 -17 -76 -68 -234 -246 -29 -34 -72 -81 -95 -106 -287 -312 -312 -350 -286 -430 26 -78 94 -116 188 -103 46 6 80 36 206 179 43 49 125 139 181 199 56 61 124 135 150 165 27 30 51 57 55 60 4 3 21 25 38 49 57 79 34 172 -57 233 -34 23 -108 23 -146 0z"/> <path d="M3060 5305 c-46 -16 -99 -109 -100 -175 0 -25 -7 -56 -15 -70 -8 -14 -14 -37 -15 -51 0 -15 -7 -43 -15 -62 -8 -20 -15 -52 -15 -71 0 -20 -6 -50 -14 -68 -17 -39 -46 -166 -46 -200 0 -13 -5 -29 -12 -36 -6 -6 -15 -33 -19 -59 -11 -75 -29 -164 -44 -213 -7 -25 -16 -83 -19 -130 -3 -47 -10 -128 -15 -181 -5 -58 -5 -126 0 -170 5 -41 12 -108 15 -149 4 -41 12 -86 19 -100 7 -14 18 -45 24 -70 7 -25 16 -61 21 -80 5 -19 14 -36 19 -38 6 -2 11 -9 11 -17 0 -16 34 -90 60 -130 11 -16 24 -39 30 -50 63 -119 198 -268 337 -372 97 -72 101 -74 193 -118 41 -20 87 -43 102 -51 14 -8 36 -14 49 -14 12 0 30 -6 38 -13 19 -15 120 -38 206 -46 l60 -6 3 -428 c3 -487 5 -470 -83 -544 -46 -38 -148 -72 -223 -73 -18 0 -45 -6 -60 -14 -15 -7 -54 -16 -87 -20 -107 -12 -175 -47 -214 -110 -28 -45 -26 -65 8 -113 19 -27 41 -43 68 -51 30 -9 228 -12 754 -12 784 0 777 -1 812 60 61 103 -33 210 -199 226 -38 4 -81 13 -96 20 -15 8 -44 14 -65 14 -21 1 -71 9 -111 18 -58 14 -84 27 -123 61 -27 23 -49 48 -49 55 0 8 -7 19 -15 26 -13 11 -15 70 -13 449 l3 436 40 2 c67 5 219 36 240 50 11 7 29 13 40 13 11 0 47 14 80 30 33 16 63 30 67 30 4 0 27 14 51 30 25 17 48 30 51 30 15 0 147 107 220 178 102 100 188 214 241 317 14 28 30 57 34 65 32 58 41 81 41 98 0 11 7 25 15 32 8 7 15 24 15 39 0 14 6 46 14 71 8 25 20 68 27 95 17 72 23 364 9 455 -6 41 -15 100 -20 130 -4 30 -13 68 -19 83 -6 16 -11 48 -11 72 0 25 -6 59 -14 77 -17 41 -46 165 -46 196 0 13 -6 36 -14 50 -12 24 -19 52 -46 187 -4 22 -13 54 -18 70 -6 17 -16 55 -22 85 -30 151 -44 192 -75 228 -11 12 -27 22 -37 22 -9 0 -20 5 -23 10 -10 16 -1960 11 -2005 -5z m1890 -265 c24 -64 40 -126 50 -194 4 -32 13 -63 19 -69 6 -6 11 -23 11 -38 0 -15 7 -43 15 -62 8 -20 15 -53 15 -74 1 -21 7 -49 15 -63 8 -14 14 -37 15 -52 l0 -28 -1014 0 c-732 0 -1017 3 -1022 11 -6 11 10 78 42 179 8 25 14 60 14 78 0 18 5 43 12 55 12 22 19 51 42 162 7 33 17 71 23 85 6 14 14 33 17 43 5 16 53 17 867 15 l863 -3 16 -45z"/> <path d="M1761 5134 c-85 -61 -111 -137 -72 -209 29 -54 62 -74 153 -91 46 -9 97 -20 113 -26 17 -6 59 -14 95 -18 65 -8 124 -20 214 -46 26 -8 65 -14 84 -14 20 0 56 -7 79 -16 41 -16 46 -16 86 1 23 10 59 36 80 57 31 34 37 47 37 84 0 97 -72 154 -220 175 -36 5 -78 13 -94 19 -16 5 -44 10 -61 10 -18 0 -46 7 -61 15 -16 8 -49 15 -73 15 -40 0 -99 13 -186 41 -16 5 -57 12 -90 15 -48 4 -65 2 -84 -12z"/> <path d="M6215 5135 c-22 -8 -53 -15 -68 -15 -16 0 -37 -5 -48 -11 -11 -6 -50 -14 -87 -18 -37 -5 -80 -13 -97 -19 -34 -12 -123 -30 -210 -42 -137 -19 -195 -68 -195 -165 0 -73 21 -110 83 -141 57 -28 72 -29 120 -9 20 8 55 15 77 15 22 0 57 7 77 15 19 8 48 15 64 15 15 0 40 5 56 11 15 6 57 15 93 19 36 4 79 12 95 18 17 6 71 18 120 27 61 11 97 23 113 38 104 97 42 265 -101 274 -30 2 -69 -3 -92 -12z"/> </g> </svg> 