 <svg  version="1.0" xmlns="http://www.w3.org/2000/svg"  width="241.000000pt" height="218.000000pt" viewBox="0 0 241.000000 218.000000"  preserveAspectRatio="xMidYMid meet">  <g transform="translate(0.000000,218.000000) scale(0.100000,-0.100000)" fill="#901014" stroke="none"> <path d="M675 1970 c-151 -25 -284 -120 -340 -243 -53 -116 -55 -137 -55 -628 0 -418 2 -462 19 -532 11 -41 29 -93 39 -114 64 -123 181 -207 331 -235 94 -18 908 -18 1006 0 187 34 314 149 372 337 16 55 18 102 18 540 0 470 0 482 -22 551 -49 155 -139 246 -303 307 -52 20 -77 21 -535 23 -264 1 -502 -1 -530 -6z m985 -156 c124 -29 193 -89 232 -204 23 -64 23 -74 23 -515 0 -401 -2 -456 -18 -507 -33 -109 -114 -185 -226 -213 -52 -14 -130 -16 -528 -13 l-468 3 -56 26 c-30 14 -72 44 -93 65 -92 94 -98 137 -94 675 4 490 5 499 78 582 98 111 124 115 660 116 348 1 437 -2 490 -15z"/> <path d="M1615 1666 c-60 -26 -73 -106 -26 -158 24 -27 36 -33 70 -33 119 0 133 179 16 200 -16 3 -44 -1 -60 -9z"/> <path d="M1055 1541 c-136 -39 -249 -134 -308 -258 -27 -58 -32 -82 -35 -164 -3 -70 0 -112 13 -155 50 -176 195 -304 378 -334 226 -39 464 115 522 336 56 216 -47 444 -245 540 -114 56 -216 67 -325 35z m229 -161 c72 -27 135 -85 171 -156 25 -50 30 -70 29 -134 0 -99 -28 -164 -98 -228 -126 -114 -317 -111 -435 7 -69 69 -86 112 -86 221 0 102 13 140 71 209 30 36 102 81 147 91 61 15 145 10 201 -10z"/> </g> </svg> 