 <svg  version="1.0" xmlns="http://www.w3.org/2000/svg"  width="816.000000pt" height="816.000000pt" viewBox="0 0 816.000000 816.000000"  preserveAspectRatio="xMidYMid meet">  <g transform="translate(0.000000,816.000000) scale(0.100000,-0.100000)" fill="#901014" stroke="none"> <path d="M3688 6696 c-8 -7 -24 -16 -36 -20 -32 -11 -80 -62 -102 -111 -18 -40 -20 -66 -20 -305 0 -220 3 -266 16 -293 20 -39 98 -115 130 -127 l24 -10 0 -407 c-1 -409 -6 -483 -38 -515 -7 -7 -12 -20 -12 -31 0 -10 -38 -55 -84 -100 -330 -321 -318 -308 -362 -377 -47 -74 -52 -83 -79 -135 -14 -27 -30 -57 -34 -65 -19 -34 -41 -92 -41 -108 0 -10 -5 -23 -12 -30 -6 -6 -15 -33 -19 -59 -4 -27 -12 -66 -18 -88 -29 -115 -31 -217 -31 -1482 0 -1313 0 -1324 36 -1396 8 -16 14 -34 14 -41 0 -25 106 -126 165 -158 l60 -33 913 -3 c964 -3 932 -4 1002 39 8 5 24 13 36 18 31 14 123 119 131 149 3 15 12 36 19 47 12 16 14 258 14 1408 0 1211 -2 1392 -15 1424 -8 19 -15 46 -15 58 0 28 -27 121 -46 157 -8 14 -14 33 -14 41 0 15 -68 156 -79 167 -3 3 -15 21 -25 40 -53 96 -194 252 -336 371 -108 90 -121 107 -174 234 -15 36 -16 86 -14 460 3 413 3 419 24 425 47 12 118 90 138 152 24 74 23 452 -1 529 -21 68 -70 130 -129 163 l-47 26 -463 0 c-378 0 -465 -3 -476 -14z m860 -420 c1 -93 -1 -173 -5 -177 -5 -5 -172 -9 -372 -9 -292 -1 -366 1 -372 12 -10 15 -12 332 -2 341 4 4 173 6 377 5 l371 -3 3 -169z m-174 -462 c3 -9 6 -194 6 -412 0 -394 6 -486 36 -545 8 -16 14 -36 14 -46 0 -26 93 -161 147 -211 26 -25 70 -63 97 -85 75 -59 168 -154 218 -220 46 -61 138 -231 138 -257 0 -7 7 -22 15 -32 8 -11 15 -32 15 -48 0 -15 7 -45 16 -67 8 -21 14 -54 12 -73 l-3 -33 -895 -3 c-492 -1 -905 0 -918 3 -22 5 -23 9 -17 63 8 66 43 189 56 198 5 3 9 14 9 24 0 20 27 75 48 98 6 7 12 17 12 22 0 5 17 35 39 67 46 70 171 198 267 275 84 67 204 207 204 240 0 7 7 22 15 32 8 11 15 29 15 40 0 12 7 30 15 40 13 17 15 89 15 467 0 246 3 454 6 463 5 14 33 16 209 16 176 0 204 -2 209 -16z m721 -2326 c3 -13 4 -399 3 -858 l-3 -835 -930 0 -930 0 -3 849 c-2 673 0 851 10 858 7 4 426 8 930 8 l918 0 5 -22z m0 -2163 c0 -185 -1 -191 -24 -222 -18 -24 -35 -34 -65 -38 -23 -3 -415 -5 -872 -3 -670 2 -834 6 -847 16 -9 7 -25 31 -36 53 -19 35 -21 57 -21 208 0 92 3 171 7 174 3 4 423 6 932 5 l926 -3 0 -190z"/> <path d="M4488 2967 c-40 -46 -95 -109 -123 -141 -27 -33 -57 -66 -65 -75 -9 -9 -45 -49 -80 -90 -36 -41 -77 -88 -92 -105 -16 -17 -28 -34 -28 -38 0 -32 -90 53 -230 215 -40 47 -78 67 -124 67 -62 0 -100 -25 -133 -89 -33 -62 -1 -119 162 -287 17 -17 63 -67 103 -112 76 -85 148 -132 203 -132 51 0 127 51 204 135 138 152 165 183 188 211 12 16 36 43 52 60 130 134 231 261 239 301 11 48 -3 102 -35 134 -26 27 -34 29 -98 29 l-70 0 -73 -83z"/> </g> </svg> 