 <svg  version="1.0" xmlns="http://www.w3.org/2000/svg"  width="241.000000pt" height="218.000000pt" viewBox="0 0 241.000000 218.000000"  preserveAspectRatio="xMidYMid meet">  <g transform="translate(0.000000,218.000000) scale(0.100000,-0.100000)" fill="#901014" stroke="none"> <path d="M1065 1924 c-523 -117 -801 -651 -601 -1152 l35 -88 -55 -209 c-30 -115 -53 -212 -52 -215 2 -4 100 20 218 52 l215 58 67 -30 c112 -49 219 -72 343 -72 171 0 295 33 435 116 187 110 319 285 382 503 32 111 33 324 1 434 -86 298 -288 499 -593 591 -90 27 -299 33 -395 12z m313 -149 c94 -19 162 -47 243 -100 423 -274 406 -909 -31 -1164 -209 -122 -456 -127 -673 -14 l-67 35 -114 -31 c-62 -17 -118 -31 -123 -31 -6 0 4 53 22 117 l32 117 -39 71 c-123 230 -100 531 58 746 149 203 436 308 692 254z"/> <path d="M935 1503 c-39 -10 -84 -54 -110 -108 -35 -71 -32 -134 13 -230 145 -308 527 -547 718 -447 49 25 92 73 100 110 3 15 8 33 10 40 2 7 -1 22 -7 33 -12 22 -170 99 -205 99 -15 0 -34 -15 -59 -50 -25 -33 -44 -50 -58 -50 -65 0 -193 94 -268 196 -46 62 -48 79 -15 113 14 15 31 39 40 55 14 27 12 33 -30 125 -25 53 -48 99 -52 103 -11 10 -55 17 -77 11z"/> </g> </svg> 